<svg height="332.179" viewBox="0 0 941.156 332.179" width="941.156" xmlns="http://www.w3.org/2000/svg">
    <defs>
        <style>.a, .d {
            fill: #61d596;
        }

        .a, .b {
            font-size: 69px;
            letter-spacing: 0.235em;
        }

        .a {
            font-family: Roboto-Medium, Roboto;
            font-weight: 500;
        }

        .b, .f {
            fill: #01149f;
        }

        .b {
            font-family: Roboto-Regular, Roboto;
        }

        .c {
            fill: #73be90;
        }

        .e {
            fill: #e8a646;
        }

        .g {
            fill: #d3244d;
        }</style>
    </defs>
    <g transform="translate(-12.682 -13.102)">
        <text class="a" transform="translate(413.838 112.096)">
            <tspan x="0" y="0">REACTIVE</tspan>
        </text>
        <text class="b" transform="translate(413.838 193.854)">
            <tspan x="0" y="0">APPLICAION</tspan>
        </text>
        <text class="b" transform="translate(413.838 277.519)">
            <tspan x="0" y="0">PLATTFORM</tspan>
        </text>
        <g transform="translate(12.682 13.11)">
            <path class="c" d="M0,45.113,166.084,211.2l48.921-48.921L48.921-3.808Z" transform="translate(0 3.808)"/>
        </g>
        <g transform="translate(129.847 130.275)">
            <path class="d" d="M0,45.113,166.084,211.2l48.921-48.921L48.921-3.808Z" transform="translate(0 3.808)"/>
        </g>
        <g transform="translate(178.765 13.102)">
            <path class="e" d="M108.043,0-9.12,117.164,39.8,166.085,156.964,48.921Z" transform="translate(9.12)"/>
        </g>
        <g transform="translate(129.835 130.268)">
            <path class="f" d="M45.125,0-3.809,48.934,45.125,97.855,94.046,48.921Z" transform="translate(3.809)"/>
        </g>
        <g transform="translate(12.684 179.19)">
            <path class="g" d="M108.043,0-9.12,117.164,39.8,166.085,156.964,48.921Z" transform="translate(9.12)"/>
        </g>
    </g>
</svg>
